<?xml version="1.0" encoding="UTF-8" standalone="no"?>
<svg width="24" height="24" viewBox="0 0 24 24" fill="none" xmlns="http://www.w3.org/2000/svg">
  <path d="M12 2C6.48 2 2 6.48 2 12C2 17.52 6.48 22 12 22C17.52 22 22 17.52 22 12C22 6.48 17.52 2 12 2ZM16.5 16.5C15.5 17.5 14.5 18 12 18C9.5 18 8.5 17.5 7.5 16.5C6.5 15.5 6 14.5 6 12C6 9.5 6.5 8.5 7.5 7.5C8.5 6.5 9.5 6 12 6C14.5 6 15.5 6.5 16.5 7.5C17.5 8.5 18 9.5 18 12C18 14.5 17.5 15.5 16.5 16.5Z" fill="#C5C5C5"/>
  <circle cx="9" cy="10" r="1.5" fill="#C5C5C5"/>
  <circle cx="15" cy="10" r="1.5" fill="#C5C5C5"/>
  <path d="M12 14C13.1046 14 14 13.5523 14 13C14 12.4477 13.1046 12 12 12C10.8954 12 10 12.4477 10 13C10 13.5523 10.8954 14 12 14Z" fill="#C5C5C5"/>
</svg>
